<svg viewBox="0 0 269.89 177.99" xmlns="http://www.w3.org/2000/svg" xmlns:xlink="http://www.w3.org/1999/xlink" id="图层_1" overflow="hidden"><style>
.MsftOfcThm_Background1_Fill_v2 {
 fill:#FFFFFF; 
}
</style>
<path d="M284.77 338 177.26 338C177.26 338 171.35 338.11 171 344L171 415.44C170.794 420.992 170.067 426.513 168.83 431.93 167.23 439.45 165.54 446.38 164.57 448.56 164.57 448.56 161.98 453.07 167.68 452.99 173.38 452.91 182 452.9 182 452.9 182 452.9 185.39 452.49 188 441.1 189.627 433.852 190.594 426.472 190.89 419.05L220 419.05 220 443.33C220 443.33 220.16 446.05 221.73 446.05L240.56 446.05C240.56 446.05 241.88 445.47 241.88 443.24L241.88 419 271.03 419 271.03 437 259.25 437C258.024 437.119 257.094 438.158 257.11 439.39L257.11 451C257.11 451 256.94 452.9 259.58 453L287.49 453C287.49 453 291.87 452.59 291.87 449L291.87 342.83C291.87 342.83 291.87 338 284.77 338ZM220 402.89 191.94 402.89 191.94 386.84 220 386.84ZM220 371.06 191.94 371.06 191.94 355 220 355ZM271.09 402.89 242 402.89 242 386.84 271.16 386.84ZM271.09 357.75 271.09 371.06 242 371.06 242 355 269 355C269.627 355.084 270.206 355.38 270.64 355.84 271.019 356.401 271.189 357.077 271.12 357.75Z" class="MsftOfcThm_Background1_Fill_v2" stroke="none" stroke-width="1" fill="#14b8a6" fill-opacity="1" transform="translate(-163.98 -332)"/><path d="M431.38 345 349.88 345 351.12 335C351.253 333.483 350.136 332.143 348.62 332L332.88 332C328.88 331.88 329.5 336.5 329.5 336.5L329.12 345 306.62 345C305.667 345.121 304.991 345.991 305.112 346.945 305.114 346.963 305.117 346.982 305.12 347L305.12 358.38C305.25 361.38 306.5 361 306.5 361L327.12 361C323.25 419.12 305.38 444.5 304 448.38 302.62 452.26 305.12 452.88 305.12 452.88L321.62 452.88C324.75 452 329.62 441 329.62 441 339.12 422.62 344 388.88 344 388.88L397.62 388.88C398.794 388.74 399.859 389.577 399.999 390.751 400.019 390.917 400.019 391.084 400 391.25 399.318 392.848 398.522 394.395 397.62 395.88 394.264 401.772 390.193 407.226 385.5 412.12L385.09 412.55C380.298 407.724 375.8 402.615 371.62 397.25L350.62 397.25C350.62 397.25 355.48 410.14 371.12 426.04 357.24 438.13 353 437 353 437 353 437 347.25 436.88 344.62 437 341.99 437.12 342 440.38 342 440.38L342 448.88C342.25 453.25 344 453 344 453L357.75 452.75C357.75 452.75 368.93 450.21 384.6 438.07 406.38 455.07 419.9 453.36 425.38 453.12 431.12 452.88 431.88 451.62 431.88 451.62L431.88 439C431.88 436.88 429.12 437 429.12 437 419.5 437 415.5 435.25 415.5 435.25 409.628 432.534 404.105 429.119 399.05 425.08L399.5 424.62C422.5 400.75 423.75 388 424 381 424.33 377.154 421.679 373.688 417.88 373L347 373 348 360.75 432 360.75C433.88 360.62 433.88 359.12 433.88 359.12L433.88 347.12C433.88 344.88 431.38 345 431.38 345Z" class="MsftOfcThm_Background1_Fill_v2" stroke="none" stroke-width="1" fill="#14b8a6" fill-opacity="1" transform="translate(-163.98 -332)"/><path d="M98.44 177.99 107.44 177.99 124.7 144.07 115.95 144.07 109.13 156.32 102.73 144.13 93.8 144.13 104.18 166.4 98.44 177.99Z" class="MsftOfcThm_Background1_Fill_v2" stroke="none" stroke-width="1" fill="#14b8a6" fill-opacity="1"/><path d="M186.22 177.99 195.21 177.99 212.47 144.07 203.72 144.07 196.9 156.32 190.5 144.13 181.57 144.13 191.95 166.4 186.22 177.99Z" class="MsftOfcThm_Background1_Fill_v2" stroke="none" stroke-width="1" fill="#14b8a6" fill-opacity="1"/><path d="M315.79 486.93C315.79 480.43 310.91 475.16 301.52 475.16 293.63 475.16 287.24 479.75 287.24 486.93 287.24 494.48 293.63 498.7 301.52 498.7 309.41 498.7 315.79 494.36 315.79 486.93ZM297.26 493.27C293.26 490.86 295.87 485.84 296.36 485.18 296.85 484.52 300.67 476.79 305.83 480.77 308.73 483.01 307.77 485.6 306.32 488.5 304.87 491.4 301.31 495.68 297.26 493.27Z" class="MsftOfcThm_Background1_Fill_v2" stroke="none" stroke-width="1" fill="#14b8a6" fill-opacity="1" transform="translate(-163.98 -332)"/><path d="M388.93 498.7C396.81 498.7 403.2 494.36 403.2 486.93 403.2 480.43 398.32 475.16 388.93 475.16 381.04 475.16 374.65 479.75 374.65 486.93 374.65 494.48 381 498.7 388.93 498.7ZM383.77 485.18C384.25 484.52 388.08 476.79 393.24 480.77 396.14 483.01 395.18 485.6 393.73 488.5 392.28 491.4 388.73 495.68 384.67 493.27 380.61 490.86 383.28 485.84 383.77 485.18Z" class="MsftOfcThm_Background1_Fill_v2" stroke="none" stroke-width="1" fill="#14b8a6" fill-opacity="1" transform="translate(-163.98 -332)"/><path d="M326.85 481C326.85 481 332.16 478.64 335.85 482.26L335.85 498 345.09 498 345.09 482C345.09 482 343.88 475.84 335.73 475.3 327.58 474.76 319.37 476.87 318.16 478.2L318.16 498.1 326.86 498.1Z" class="MsftOfcThm_Background1_Fill_v2" stroke="none" stroke-width="1" fill="#14b8a6" fill-opacity="1" transform="translate(-163.98 -332)"/><path d="M432 476.1 423.31 476.1 423.31 493.24C423.31 493.24 418 495.6 414.31 491.97L414.31 476.16 405.07 476.16 405.07 492.22C405.07 492.22 406.28 498.37 414.43 498.92 422.58 499.47 430.8 497.35 432 496Z" class="MsftOfcThm_Background1_Fill_v2" stroke="none" stroke-width="1" fill="#14b8a6" fill-opacity="1" transform="translate(-163.98 -332)"/></svg>